<?xml version="1.0" encoding="UTF-8" standalone="no"?>
<!-- Created with Inkscape (http://www.inkscape.org/) -->

<svg
   width="70.000008mm"
   height="70mm"
   viewBox="0 0 70.000008 70"
   version="1.1"
   id="svg5"
   inkscape:version="1.1.2 (0a00cf5339, 2022-02-04, custom)"
   sodipodi:docname="Bulb.svg"
   xmlns:inkscape="http://www.inkscape.org/namespaces/inkscape"
   xmlns:sodipodi="http://sodipodi.sourceforge.net/DTD/sodipodi-0.dtd"
   xmlns="http://www.w3.org/2000/svg"
   xmlns:svg="http://www.w3.org/2000/svg">
  <sodipodi:namedview
     id="namedview7"
     pagecolor="#ffffff"
     bordercolor="#666666"
     borderopacity="1.0"
     inkscape:pageshadow="2"
     inkscape:pageopacity="0.0"
     inkscape:pagecheckerboard="0"
     inkscape:document-units="mm"
     showgrid="false"
     inkscape:zoom="0.88638135"
     inkscape:cx="-86.870059"
     inkscape:cy="213.7906"
     inkscape:window-width="1366"
     inkscape:window-height="703"
     inkscape:window-x="0"
     inkscape:window-y="0"
     inkscape:window-maximized="1"
     inkscape:current-layer="layer2" />
  <defs
     id="defs2">
    <filter
       inkscape:collect="always"
       style="color-interpolation-filters:sRGB"
       id="filter35626"
       x="-0.11325566"
       y="-0.10902433"
       width="1.2265113"
       height="1.2180487">
      <feGaussianBlur
         inkscape:collect="always"
         stdDeviation="1.7072741"
         id="feGaussianBlur35628" />
    </filter>
    <filter
       inkscape:collect="always"
       style="color-interpolation-filters:sRGB"
       id="filter35626-3"
       x="-0.16609454"
       y="-0.15420742"
       width="1.3321891"
       height="1.3084148">
      <feGaussianBlur
         inkscape:collect="always"
         stdDeviation="2.4764683"
         id="feGaussianBlur35628-6" />
    </filter>
    <filter
       inkscape:collect="always"
       style="color-interpolation-filters:sRGB"
       id="filter42313"
       x="-0.082736699"
       y="-0.068905292"
       width="1.1655182"
       height="1.1339417">
      <feGaussianBlur
         inkscape:collect="always"
         stdDeviation="0.82897642"
         id="feGaussianBlur42315" />
    </filter>
    <filter
       inkscape:collect="always"
       style="color-interpolation-filters:sRGB"
       id="filter42355"
       x="-0.042493989"
       y="-0.039532112"
       width="1.084903"
       height="1.0738739">
      <feGaussianBlur
         inkscape:collect="always"
         stdDeviation="0.25765831"
         id="feGaussianBlur42357" />
    </filter>
    <filter
       inkscape:collect="always"
       style="color-interpolation-filters:sRGB"
       id="filter42888"
       x="-0.0026470242"
       y="-0.0024621086"
       width="1.005274"
       height="1.0036505">
      <feGaussianBlur
         inkscape:collect="always"
         stdDeviation="0.00582344"
         id="feGaussianBlur42890" />
    </filter>
  </defs>
  <g
     inkscape:groupmode="layer"
     id="layer2"
     inkscape:label="Layer 2"
     style="display:inline;opacity:1;mix-blend-mode:color-burn">
    <g
       id="g41240"
       style="display:inline;mix-blend-mode:luminosity"
       transform="translate(-42.130853,-47.44407)">
      <ellipse
         style="opacity:1;mix-blend-mode:hard-light;fill:#ffff00;fill-opacity:0;stroke:#ffff00;stroke-width:0.714;stroke-miterlimit:4;stroke-dasharray:none;stroke-opacity:1;filter:url(#filter35626)"
         id="path35364"
         cx="77.130852"
         cy="77.366325"
         rx="19.665497"
         ry="20.428732" />
      <ellipse
         style="opacity:0.949653;mix-blend-mode:soft-light;fill:#ffff00;fill-opacity:0;stroke:#ffff00;stroke-width:0.714;stroke-miterlimit:4;stroke-dasharray:none;stroke-opacity:1;filter:url(#filter35626-3)"
         id="path35364-7"
         cx="78.451027"
         cy="83.26387"
         rx="18.966681"
         ry="20.428732"
         transform="matrix(1.3174661,0,0,1.3016016,-25.482336,-31.293324)" />
    </g>
  </g>
  <g
     inkscape:groupmode="layer"
     id="layer3"
     inkscape:label="Layer 3"
     style="display:inline">
    <g
       id="g42927"
       transform="translate(-1.4202998,0.92818187)">
      <path
         style="opacity:1;mix-blend-mode:luminosity;fill:#cccccc;stroke:#4d4d4d;stroke-width:0.263523px;stroke-linecap:butt;stroke-linejoin:miter;stroke-opacity:1"
         d="m 30.676,51.399316 c 0.152155,0.697391 0.2089,1.420192 0.456466,2.092165 0.05801,0.157453 2.765589,0.250958 3.200363,0.276045 1.966995,0.11349 3.910874,-0.341697 5.842817,-0.592051 0.439546,-0.05695 0.898948,0.02813 1.344048,-0.0078 0.384122,-0.03057 0.739065,-0.152011 1.115817,-0.203401 0.481056,-0.06561 0.959593,-0.03651 1.440413,-0.07632 0.06922,-0.0058 0.616163,0.06114 0.623845,0.02911 0.1995,-0.833213 -0.492335,-1.988482 -0.328346,-2.828733"
         id="path1159"
         sodipodi:nodetypes="cssscsccc" />
      <path
         style="opacity:1;mix-blend-mode:luminosity;fill:#cccccc;stroke:#4d4d4d;stroke-width:0.263523px;stroke-linecap:butt;stroke-linejoin:miter;stroke-opacity:1"
         d="m 30.604992,50.378675 c -0.02321,0.530065 -0.104915,1.072012 -0.07608,1.605438 0.03246,0.600588 0.183164,1.180888 0.192733,1.790674 0.01355,0.863822 -0.211106,1.856397 -0.05072,2.709635 0.125424,0.667242 0.342736,1.098929 1.080308,1.322122 1.088472,0.329382 4.160159,-0.119789 5.558793,-0.05452 0.724556,0.03388 1.381494,0.321378 2.089619,0.403172 0.851531,0.09836 4.733777,-0.02531 5.431992,-0.592051 0.218427,-0.177283 0.335105,-0.746747 0.360104,-1.02428 0.104905,-1.164592 -0.420691,-3.02236 -0.603556,-4.253324 -0.161994,-1.09047 -0.118407,-2.226965 -0.26374,-3.319838 -0.03138,-0.235944 -0.318868,-1.264562 -0.324599,-1.26764 -0.946721,-0.508491 -2.365612,0.141638 -3.30687,0.301471 -0.869654,0.147675 -1.807617,0.08419 -2.667816,0.261521 -1.541632,0.317824 -3.155877,0.53367 -4.762501,0.36322 -0.350586,-0.0372 -2.196757,-0.528227 -2.546087,-0.221562 -0.561506,0.492928 -0.05081,0.956648 -0.174258,1.388274 -0.05009,0.175148 0.07838,0.406703 0.06268,0.587649 -0.100851,1.161637 0.179432,0.593556 0.071,1.020645 0.938775,0.06698 1.945947,0.295524 2.890973,0.101711 0.852834,-0.174907 1.953715,-0.0019 2.814246,-0.154903 0.463485,-0.08245 2.289786,-0.149109 2.750597,-0.246764 1.368453,-0.290002 1.219425,-0.494981 2.651245,-0.180753 0.484156,0.106253 0.670469,-0.326183 1.141547,-0.191242 0.386128,0.110608 1.35767,-0.266609 1.446815,-0.638997"
         id="path1157"
         sodipodi:nodetypes="csssscssssscsssssscsssssc" />
      <path
         style="fill:none;stroke:#4d4d4d;stroke-width:0.263523px;stroke-linecap:butt;stroke-linejoin:miter;stroke-opacity:1"
         d="m 30.91217,53.852816 c -0.008,-0.05055 -0.0268,-0.100583 -0.02408,-0.151643 0.01566,-0.295553 1.186473,-0.368182 1.380821,-0.375935 0.739019,-0.02949 1.752027,-0.02252 2.464936,0.134392 0.244506,0.05382 0.478861,0.176795 0.72021,0.247896 0.585014,0.172354 1.05098,0.213098 1.667381,0.193418 1.129146,-0.03606 2.56485,-0.09176 3.621332,-0.432234 0.59648,-0.192224 0.89351,-0.618393 1.565941,-0.738246 0.264626,-0.04717 0.54687,-0.115361 0.817847,-0.0799 0.437148,0.0572 0.898233,0.2594 1.34785,0.213392"
         id="path39948" />
      <path
         style="fill:none;stroke:#4d4d4d;stroke-width:0.263523px;stroke-linecap:butt;stroke-linejoin:miter;stroke-opacity:1"
         d="m 30.779033,56.129306 c 0.123327,0.03609 0.232643,-0.02285 0.35123,-0.02634 0.25954,-0.0076 0.514876,0.05986 0.775999,0.05085 0.20177,-0.0069 0.400846,-0.04928 0.601018,-0.06901 0.342715,-0.03377 0.687821,-0.02801 1.029593,-0.07356 0.872259,-0.116217 -0.141865,-0.01241 0.731621,-0.108057 0.352159,-0.03856 0.707404,-0.0428 1.060024,-0.07809 0.417957,-0.04184 0.833864,-0.09845 1.252756,-0.133484 0.418923,-0.03503 0.837994,-0.0028 1.256562,-0.03451 0.544377,-0.0412 1.079677,-0.114823 1.628074,-0.09081 0.377333,0.01654 0.74429,0.161332 1.117083,0.220658 0.530446,0.08441 1.06006,0.119296 1.597647,0.11714 0.449705,-0.0018 0.884964,-0.09867 1.328833,-0.146197 0.343295,-0.03677 0.693238,-0.01117 1.037203,-0.0454 0.147386,-0.01466 0.286304,-0.05993 0.434911,-0.05993"
         id="path40117" />
      <path
         style="mix-blend-mode:luminosity;fill:none;stroke:#808080;stroke-width:0.265;stroke-linecap:butt;stroke-linejoin:miter;stroke-miterlimit:4;stroke-dasharray:none;stroke-opacity:1;filter:url(#filter42313)"
         d="m 30.036459,51.75095 c -0.197136,-1.906291 0.125902,-4.466531 -0.885957,-6.286918 -0.08321,-0.149693 -0.257009,-0.227134 -0.373296,-0.34699 -0.280367,-0.288978 -0.422198,-1.043234 -0.676909,-1.406631 -0.444536,-0.634222 -1.079665,-1.123259 -1.498162,-1.817047 -0.410513,-0.680551 -0.549953,-1.446988 -0.890931,-2.156579 -0.343196,-0.714208 -0.803541,-1.386655 -1.080071,-2.130462 -0.784743,-2.110793 -0.871334,-4.503299 -0.403161,-6.667491 0.114235,-0.528067 0.068,-1.042323 0.243887,-1.563332 1.351799,-4.00436 8.657818,-8.797263 12.871247,-8.402454 1.673659,0.156826 3.091381,1.201039 4.534299,1.951368 2.992128,1.555933 5.807935,4.039488 6.928369,7.339089 0.286591,0.843992 0.711025,1.781638 0.77148,2.678933 0.04772,0.708327 -0.01058,2.259835 -0.228958,2.921458 -0.248935,0.754231 -0.704871,1.467095 -1.025313,2.193893 -0.31982,0.725387 -0.536554,1.604933 -1.025321,2.246124 -0.38544,0.505638 -0.831107,1.124162 -1.14975,1.712579 -0.322093,0.594792 -0.62585,1.276649 -1.010388,1.835703 -0.936596,1.361665 -2.171496,2.621386 -2.334344,4.391515 -0.02763,0.300294 0.156299,0.619942 0.253843,0.888002 0.0033,0.009 0,0.03247 0,0.04104 v -0.04104"
         id="path1163"
         sodipodi:nodetypes="cssssssscssssssssssccc"
         transform="matrix(1.0190082,0,0,0.97349433,-0.00240584,-5.810975e-4)" />
      <path
         style="opacity:0.77619;mix-blend-mode:luminosity;fill:#000000;fill-opacity:0;stroke:#ffff00;stroke-width:0.264583px;stroke-linecap:butt;stroke-linejoin:miter;stroke-opacity:1;filter:url(#filter42355)"
         d="m 32.058173,49.696372 c 0.45021,-1.632588 0.06605,-4.036858 -0.234874,-5.694933 -0.283123,-1.559975 -0.45424,-3.157751 -0.856091,-4.697462 -0.154401,-0.591595 -0.441744,-1.140974 -0.627135,-1.723771 -0.330816,-1.039958 -0.430753,-2.162075 -0.766501,-3.201293 -0.28646,-0.88666 -0.723252,-1.520653 -1.204501,-2.294632 -0.101111,-0.162614 -0.167847,-0.506496 -0.31357,-0.641747 -0.261053,-0.242294 -0.663329,-0.405336 -0.781431,0.07462 -0.267327,1.086394 2.950878,4.025505 3.937025,3.537088 0.550456,-0.272628 0.789586,-1.002136 0.9855,-1.529754 0.185904,-0.500652 0.515143,-1.089998 0.338457,-1.652877 -0.07486,-0.238474 -0.736319,-0.631982 -1.000435,-0.451464 -0.499984,0.341729 0.352005,3.168289 0.796365,3.488585 0.489749,0.353013 1.282427,0.356396 1.851551,0.287294 0.863256,-0.104815 2.206808,-1.269493 2.413979,-2.126732 0.196027,-0.811117 -0.151632,-1.46589 -0.915818,-1.593183 -0.08344,-0.0139 -0.194053,-0.181086 -0.243887,-0.167901 -0.751608,0.19887 -1.733275,3.825967 0.716727,3.891546 1.470112,0.03935 3.620621,-1.392282 4.275481,-2.708784 0.27291,-0.548647 -0.02405,-1.674362 -0.831204,-1.537215 -1.650098,0.280379 -1.380268,3.858399 0.82623,3.984822 0.589153,0.03376 0.848955,-0.253272 1.343864,-0.488776 0.422055,-0.200837 0.82623,-0.368049 1.119886,-0.761144 0.266715,-0.35703 0.602998,-2.111279 0.378274,-2.462529 -0.131595,-0.205691 -0.302008,-0.258792 -0.512662,-0.361919 -0.134588,-0.06589 -0.473511,-0.22746 -0.63709,-0.194017 -0.973121,0.198947 -1.316304,3.451413 0.612209,3.88035 1.30171,0.289525 2.30296,-1.432028 2.229818,-2.555809 -0.0105,-0.161397 -0.122076,-1.016448 -0.428048,-0.884272 -1.21026,0.522818 -0.550513,3.253952 -1.055177,4.283311 -0.919916,1.876343 -1.825641,3.8232 -2.354254,5.854107 -0.140089,0.538213 -0.157739,1.1758 -0.348409,1.693923 -0.12954,0.35201 -0.346937,0.6652 -0.467868,1.022324 -0.286358,0.845659 -0.06934,1.815535 -0.115722,2.708091 -0.02416,0.46481 -0.33252,1.53324 0.08462,1.984947 0.68427,0.740981 -1.003358,-0.102738 0,0"
         id="path1165"
         sodipodi:nodetypes="cssssssssssssssscssssssssssssssssssc"
         transform="matrix(1.0190082,0,0,0.97349433,-0.00240584,-5.810975e-4)" />
      <path
         style="opacity:0.680783;mix-blend-mode:luminosity;fill:#000000;fill-opacity:0;stroke:#ff0000;stroke-width:0.065;stroke-linecap:butt;stroke-linejoin:miter;stroke-miterlimit:4;stroke-dasharray:none;stroke-opacity:1;filter:url(#filter42888)"
         d="m 32.058173,49.696372 c 0.45021,-1.632588 0.06605,-4.036858 -0.234874,-5.694933 -0.283123,-1.559975 -0.45424,-3.157751 -0.856091,-4.697462 -0.154401,-0.591595 -0.441744,-1.140974 -0.627135,-1.723771 -0.330816,-1.039958 -0.430753,-2.162075 -0.766501,-3.201293 -0.28646,-0.88666 -0.723252,-1.520653 -1.204501,-2.294632 -0.101111,-0.162614 -0.167847,-0.506496 -0.31357,-0.641747 -0.261053,-0.242294 -0.663329,-0.405336 -0.781431,0.07462 -0.267327,1.086394 2.950878,4.025505 3.937025,3.537088 0.550456,-0.272628 0.789586,-1.002136 0.9855,-1.529754 0.185904,-0.500652 0.515143,-1.089998 0.338457,-1.652877 -0.07486,-0.238474 -0.736319,-0.631982 -1.000435,-0.451464 -0.499984,0.341729 0.352005,3.168289 0.796365,3.488585 0.489749,0.353013 1.282427,0.356396 1.851551,0.287294 0.863256,-0.104815 2.206808,-1.269493 2.413979,-2.126732 0.196027,-0.811117 -0.151632,-1.46589 -0.915818,-1.593183 -0.08344,-0.0139 -0.194053,-0.181086 -0.243887,-0.167901 -0.751608,0.19887 -1.733275,3.825967 0.716727,3.891546 1.470112,0.03935 3.620621,-1.392282 4.275481,-2.708784 0.27291,-0.548647 -0.02405,-1.674362 -0.831204,-1.537215 -1.650098,0.280379 -1.380268,3.858399 0.82623,3.984822 0.589153,0.03376 0.848955,-0.253272 1.343864,-0.488776 0.422055,-0.200837 0.82623,-0.368049 1.119886,-0.761144 0.266715,-0.35703 0.602998,-2.111279 0.378274,-2.462529 -0.131595,-0.205691 -0.302008,-0.258792 -0.512662,-0.361919 -0.134588,-0.06589 -0.473511,-0.22746 -0.63709,-0.194017 -0.973121,0.198947 -1.316304,3.451413 0.612209,3.88035 1.30171,0.289525 2.30296,-1.432028 2.229818,-2.555809 -0.0105,-0.161397 -0.122076,-1.016448 -0.428048,-0.884272 -1.21026,0.522818 -0.550513,3.253952 -1.055177,4.283311 -0.919916,1.876343 -1.825641,3.8232 -2.354254,5.854107 -0.140089,0.538213 -0.157739,1.1758 -0.348409,1.693923 -0.12954,0.35201 -0.346937,0.6652 -0.467868,1.022324 -0.286358,0.845659 -0.06934,1.815535 -0.115722,2.708091 -0.02416,0.46481 -0.33252,1.53324 0.08462,1.984947 0.68427,0.740981 -1.003358,-0.102738 0,0"
         id="path1165-5"
         sodipodi:nodetypes="cssssssssssssssscssssssssssssssssssc"
         transform="matrix(1.0190082,0,0,0.97349433,-0.00240584,-5.810975e-4)" />
      <path
         style="mix-blend-mode:luminosity;fill:#ff0000;stroke:#ffff00;stroke-width:0.263523px;stroke-linecap:butt;stroke-linejoin:miter;stroke-opacity:1"
         d="m 52.551049,38.791919 c -1.070497,-1.598933 -0.04432,-1.743036 1.095531,-2.350041 0.758795,-0.40408 1.306609,-0.723542 2.26206,-0.432234 1.714081,0.522605 2.630054,2.531363 4.666134,1.827 0.753007,-0.260491 1.165593,-1.274329 1.30855,-1.979552"
         id="path35229" />
      <path
         style="mix-blend-mode:luminosity;fill:#ff0000;stroke:#ffff00;stroke-width:0.263523px;stroke-linecap:butt;stroke-linejoin:miter;stroke-opacity:1"
         d="m 51.130921,25.708692 c -0.09548,-0.517638 -0.219855,-1.075548 -0.142013,-1.60907 0.08655,-0.593245 0.622754,-1.804111 1.20711,-2.132107 0.739723,-0.415206 1.585044,-0.0012 2.353359,-0.148923 1.111244,-0.213689 2.515375,-1.441191 2.125121,-2.61519"
         id="path35231" />
      <path
         style="mix-blend-mode:luminosity;fill:#ff0000;stroke:#ffff00;stroke-width:0.263523px;stroke-linecap:butt;stroke-linejoin:miter;stroke-opacity:1"
         d="m 42.209471,17.554378 c -0.565318,-1.280443 -0.841102,-2.682891 0.349961,-3.708489 0.663566,-0.571385 1.604992,-0.631635 2.038898,-1.463782 0.47502,-0.910997 0.09414,-1.633582 -0.213019,-2.5134912"
         id="path35233" />
      <path
         style="mix-blend-mode:luminosity;fill:#ff0000;stroke:#ffff00;stroke-width:0.263523px;stroke-linecap:butt;stroke-linejoin:miter;stroke-opacity:1"
         d="M 31.264335,20.038811 C 31.018396,18.740872 30.927282,17.225493 29.397883,16.766187 28.889138,16.6134 27.749837,16.69583 27.419844,16.442921 26.513928,15.748622 26.0476,13.785626 25.538173,12.71264"
         id="path35235" />
      <path
         style="mix-blend-mode:luminosity;fill:#ff0000;stroke:#ffff00;stroke-width:0.263523px;stroke-linecap:butt;stroke-linejoin:miter;stroke-opacity:1"
         d="m 24.031825,24.295762 c -0.544475,-0.137292 -1.083129,-0.236198 -1.643293,-0.276051 -0.702966,-0.05001 -2.060389,-0.44307 -2.733749,-0.04721 -1.116366,0.656288 -1.451318,2.483026 -3.149642,2.190223 -0.287635,-0.04959 -0.810305,-0.355915 -1.034666,-0.454026 -1.152268,-0.503876 -2.766478,-1.482748 -4.052435,-1.351183"
         id="path35237" />
      <path
         style="mix-blend-mode:luminosity;fill:#ff0000;stroke:#ffff00;stroke-width:0.263523px;stroke-linecap:butt;stroke-linejoin:miter;stroke-opacity:1"
         d="m 20.446,35.09796 c -1.269424,0.08792 -2.922554,0.0177 -3.783631,1.104189 -1.270462,1.603048 -0.898681,3.118966 -3.175001,4.035388 -0.936353,0.376968 -1.661031,0.521053 -2.612021,0.156183"
         id="path35239" />
      <path
         style="mix-blend-mode:luminosity;fill:#ff0000;stroke:#ffff00;stroke-width:0.263523px;stroke-linecap:butt;stroke-linejoin:miter;stroke-opacity:1"
         d="m 25.101994,44.200281 c -0.867834,1.165621 -2.152634,3.069132 -3.925644,2.851285 -0.863955,-0.106151 -1.617029,-0.584373 -2.520727,-0.424966 -1.320032,0.232843 -3.849856,1.480245 -4.752362,2.42995 -0.389296,0.409654 -0.601648,1.02465 -0.841932,1.514631"
         id="path35241" />
      <path
         style="mix-blend-mode:luminosity;fill:#ff0000;stroke:#ffff00;stroke-width:0.263523px;stroke-linecap:butt;stroke-linejoin:miter;stroke-opacity:1"
         d="m 50.988908,45.231829 c -0.677957,-0.683308 -0.798074,-0.712203 -0.456473,-1.572747 0.412912,-1.040183 1.369808,-0.554634 2.221495,-0.381382 0.943275,0.191883 1.850009,0.217615 2.733743,0.632003 1.063998,0.498914 2.051241,1.231534 3.301801,1.169572 1.123016,-0.05563 1.740219,-1.160524 2.038901,-2.048568"
         id="path35245" />
    </g>
  </g>
</svg>
